<svg viewBox="0 0 256 256" width="60" height="60" xmlns="http://www.w3.org/2000/svg"><path d="m206.82422 125.169a3.999 3.999 0 0 1 -.00342 5.65625l-82.05322 81.94628a52 52 0 0 1 -73.53711-73.541l99.28808-100.6709a35.99962 35.99962 0 1 1 50.93165 50.89057l-99.28858 100.67187a19.99943 19.99943 0 1 1 -28.30322-28.26367l83.28418-84.668a3.99971 3.99971 0 1 1 5.70312 5.60937l-83.30761 84.69144a11.99995 11.99995 0 1 0 16.94677 16.99414l99.28858-100.67187a27.99978 27.99978 0 1 0 -39.57813-39.61719l-99.28808 100.6709a44.00013 44.00013 0 1 0 62.20507 62.24609l82.05518-81.94828a3.99825 3.99825 0 0 1 5.65674.004z" style="stroke: rgb(255, 255, 255); stroke-width: 2px;"></path></svg>